{"accessors":[{"bufferView":0,"byteOffset":0,"componentType":5126,"count":43,"max":[1.7081576289183094,0.8159042201986385,6.610265274620174e-18],"min":[-0.2866350957160943,-0.029769988227599545,-1.8116713023067244e-16],"type":"VEC3"},{"bufferView":0,"byteOffset":516,"componentType":5126,"count":220,"max":[1.7,0.8159042201986387,0.8],"min":[-0.2866350957160943,0.0352677,-1.8116713023067244e-16],"type":"VEC3"},{"bufferView":0,"byteOffset":3156,"componentType":5126,"count":32,"max":[1.7086435529352056,0.2600000000000002,0.8],"min":[1.59937,-0.029769988227599545,-5.773159728050814e-17],"type":"VEC3"},{"bufferView":0,"byteOffset":3540,"componentType":5126,"count":4,"max":[1.59937,-0.029769988227599368,0.8],"min":[0.000016439063163034008,-0.029769988227599545,6.610265274620174e-18],"type":"VEC3"},{"bufferView":0,"byteOffset":3588,"componentType":5126,"count":7,"max":[0.000016439063163034008,0.03526770000000018,0.8],"min":[-0.234828,-0.029769988227599545,-7.831002513114527e-18],"type":"VEC3"},{"bufferView":0,"byteOffset":3672,"componentType":5126,"count":43,"max":[1.7081576289183094,0.8159042201986387,0.8],"min":[-0.2866350957160943,-0.029769988227599368,0.7999999999999998],"type":"VEC3"},{"bufferView":1,"byteOffset":0,"componentType":5126,"count":43,"type":"VEC3"},{"bufferView":1,"byteOffset":516,"componentType":5126,"count":220,"type":"VEC3"},{"bufferView":1,"byteOffset":3156,"componentType":5126,"count":32,"type":"VEC3"},{"bufferView":1,"byteOffset":3540,"componentType":5126,"count":4,"type":"VEC3"},{"bufferView":1,"byteOffset":3588,"componentType":5126,"count":7,"type":"VEC3"},{"bufferView":1,"byteOffset":3672,"componentType":5126,"count":43,"type":"VEC3"},{"bufferView":2,"byteOffset":0,"componentType":5123,"count":123,"type":"SCALAR"},{"bufferView":2,"byteOffset":248,"componentType":5123,"count":1104,"type":"SCALAR"},{"bufferView":2,"byteOffset":2456,"componentType":5123,"count":144,"type":"SCALAR"},{"bufferView":2,"byteOffset":2744,"componentType":5123,"count":6,"type":"SCALAR"},{"bufferView":2,"byteOffset":2756,"componentType":5123,"count":18,"type":"SCALAR"},{"bufferView":2,"byteOffset":2792,"componentType":5123,"count":123,"type":"SCALAR"}],"asset":{"generator":"Open CASCADE Technology 7.9 [dev.opencascade.org]","version":"2.0"},"bufferViews":[{"buffer":0,"byteLength":4188,"byteOffset":0,"byteStride":12,"target":34962},{"buffer":0,"byteLength":4188,"byteOffset":4188,"byteStride":12,"target":34962},{"buffer":0,"byteLength":3040,"byteOffset":8376,"target":34963}],"buffers":[{"byteLength":11416,"uri":"Body-Body.bin"}],"materials":[{"name":"mat_0","pbrMetallicRoughness":{"baseColorFactor":[0.16826939582824708,0.19120168685913087,0.2158605307340622,1.0]},"doubleSided":true}],"meshes":[{"name":"Body","primitives":[{"attributes":{"NORMAL":6,"POSITION":0},"indices":12,"material":0,"mode":4},{"attributes":{"NORMAL":7,"POSITION":1},"indices":13,"material":0,"mode":4},{"attributes":{"NORMAL":8,"POSITION":2},"indices":14,"material":0,"mode":4},{"attributes":{"NORMAL":9,"POSITION":3},"indices":15,"material":0,"mode":4},{"attributes":{"NORMAL":10,"POSITION":4},"indices":16,"material":0,"mode":4},{"attributes":{"NORMAL":11,"POSITION":5},"indices":17,"material":0,"mode":4}]}],"nodes":[{"mesh":0,"name":"Body"}],"scene":0,"scenes":[{"nodes":[0]}]}