ISO-10303-21;
HEADER;
FILE_DESCRIPTION(('FreeCAD Model'),'2;1');
FILE_NAME('Open CASCADE Shape Model','2026-04-13T15:02:12',(''),(''),
  'Open CASCADE STEP processor 7.9','FreeCAD','Unknown');
FILE_SCHEMA(('AUTOMOTIVE_DESIGN { 1 0 10303 214 1 1 1 1 }'));
ENDSEC;
DATA;
#1 = APPLICATION_PROTOCOL_DEFINITION('international standard',
  'automotive_design',2000,#2);
#2 = APPLICATION_CONTEXT(
  'core data for automotive mechanical design processes');
#3 = SHAPE_DEFINITION_REPRESENTATION(#4,#10);
#4 = PRODUCT_DEFINITION_SHAPE('','',#5);
#5 = PRODUCT_DEFINITION('design','',#6,#9);
#6 = PRODUCT_DEFINITION_FORMATION('','',#7);
#7 = PRODUCT('Contact Point','Contact Point','',(#8));
#8 = PRODUCT_CONTEXT('',#2,'mechanical');
#9 = PRODUCT_DEFINITION_CONTEXT('part definition',#2,'design');
#10 = SHAPE_REPRESENTATION('',(#11,#15),#19);
#11 = AXIS2_PLACEMENT_3D('',#12,#13,#14);
#12 = CARTESIAN_POINT('',(0.,0.,0.));
#13 = DIRECTION('',(0.,0.,1.));
#14 = DIRECTION('',(1.,0.,-0.));
#15 = AXIS2_PLACEMENT_3D('',#16,#17,#18);
#16 = CARTESIAN_POINT('',(0.,0.,0.));
#17 = DIRECTION('',(0.,0.,1.));
#18 = DIRECTION('',(1.,0.,0.));
#19 = ( GEOMETRIC_REPRESENTATION_CONTEXT(3) 
GLOBAL_UNCERTAINTY_ASSIGNED_CONTEXT((#23)) GLOBAL_UNIT_ASSIGNED_CONTEXT(
(#20,#21,#22)) REPRESENTATION_CONTEXT('Context #1',
  '3D Context with UNIT and UNCERTAINTY') );
#20 = ( LENGTH_UNIT() NAMED_UNIT(*) SI_UNIT(.MILLI.,.METRE.) );
#21 = ( NAMED_UNIT(*) PLANE_ANGLE_UNIT() SI_UNIT($,.RADIAN.) );
#22 = ( NAMED_UNIT(*) SI_UNIT($,.STERADIAN.) SOLID_ANGLE_UNIT() );
#23 = UNCERTAINTY_MEASURE_WITH_UNIT(LENGTH_MEASURE(1.E-07),#20,
  'distance_accuracy_value','confusion accuracy');
#24 = PRODUCT_RELATED_PRODUCT_CATEGORY('part',$,(#7));
#25 = SHAPE_DEFINITION_REPRESENTATION(#26,#32);
#26 = PRODUCT_DEFINITION_SHAPE('','',#27);
#27 = PRODUCT_DEFINITION('design','',#28,#31);
#28 = PRODUCT_DEFINITION_FORMATION('','',#29);
#29 = PRODUCT('Body001','Body001','',(#30));
#30 = PRODUCT_CONTEXT('',#2,'mechanical');
#31 = PRODUCT_DEFINITION_CONTEXT('part definition',#2,'design');
#32 = ADVANCED_BREP_SHAPE_REPRESENTATION('',(#11,#33),#255);
#33 = MANIFOLD_SOLID_BREP('',#34);
#34 = CLOSED_SHELL('',(#35,#68,#88,#113,#138,#163,#183,#208,#228,#246));
#35 = ADVANCED_FACE('',(#36),#63,.T.);
#36 = FACE_BOUND('',#37,.T.);
#37 = EDGE_LOOP('',(#38,#47,#55,#62));
#38 = ORIENTED_EDGE('',*,*,#39,.T.);
#39 = EDGE_CURVE('',#40,#40,#42,.T.);
#40 = VERTEX_POINT('',#41);
#41 = CARTESIAN_POINT('',(70.,2.775557561563E-15,12.5));
#42 = CIRCLE('',#43,70.);
#43 = AXIS2_PLACEMENT_3D('',#44,#45,#46);
#44 = CARTESIAN_POINT('',(0.,2.775557561563E-15,12.5));
#45 = DIRECTION('',(0.,-2.22044604925E-16,-1.));
#46 = DIRECTION('',(1.,0.,0.));
#47 = ORIENTED_EDGE('',*,*,#48,.T.);
#48 = EDGE_CURVE('',#40,#49,#51,.T.);
#49 = VERTEX_POINT('',#50);
#50 = CARTESIAN_POINT('',(70.,1.665334536938E-15,7.5));
#51 = LINE('',#52,#53);
#52 = CARTESIAN_POINT('',(70.,2.775557561563E-15,12.5));
#53 = VECTOR('',#54,1.);
#54 = DIRECTION('',(0.,-2.22044604925E-16,-1.));
#55 = ORIENTED_EDGE('',*,*,#56,.F.);
#56 = EDGE_CURVE('',#49,#49,#57,.T.);
#57 = CIRCLE('',#58,70.);
#58 = AXIS2_PLACEMENT_3D('',#59,#60,#61);
#59 = CARTESIAN_POINT('',(0.,1.665334536938E-15,7.5));
#60 = DIRECTION('',(0.,-2.22044604925E-16,-1.));
#61 = DIRECTION('',(1.,0.,0.));
#62 = ORIENTED_EDGE('',*,*,#48,.F.);
#63 = CYLINDRICAL_SURFACE('',#64,70.);
#64 = AXIS2_PLACEMENT_3D('',#65,#66,#67);
#65 = CARTESIAN_POINT('',(0.,2.775557561563E-15,12.5));
#66 = DIRECTION('',(-0.,-2.22044604925E-16,-1.));
#67 = DIRECTION('',(1.,0.,0.));
#68 = ADVANCED_FACE('',(#69,#80),#83,.F.);
#69 = FACE_BOUND('',#70,.F.);
#70 = EDGE_LOOP('',(#71));
#71 = ORIENTED_EDGE('',*,*,#72,.T.);
#72 = EDGE_CURVE('',#73,#73,#75,.T.);
#73 = VERTEX_POINT('',#74);
#74 = CARTESIAN_POINT('',(100.,1.665334536938E-15,7.5));
#75 = CIRCLE('',#76,100.);
#76 = AXIS2_PLACEMENT_3D('',#77,#78,#79);
#77 = CARTESIAN_POINT('',(0.,1.665334536938E-15,7.5));
#78 = DIRECTION('',(0.,-2.22044604925E-16,-1.));
#79 = DIRECTION('',(1.,0.,0.));
#80 = FACE_BOUND('',#81,.F.);
#81 = EDGE_LOOP('',(#82));
#82 = ORIENTED_EDGE('',*,*,#56,.F.);
#83 = PLANE('',#84);
#84 = AXIS2_PLACEMENT_3D('',#85,#86,#87);
#85 = CARTESIAN_POINT('',(0.,1.665334536938E-15,7.5));
#86 = DIRECTION('',(-0.,-2.22044604925E-16,-1.));
#87 = DIRECTION('',(1.,0.,0.));
#88 = ADVANCED_FACE('',(#89),#108,.T.);
#89 = FACE_BOUND('',#90,.F.);
#90 = EDGE_LOOP('',(#91,#100,#106,#107));
#91 = ORIENTED_EDGE('',*,*,#92,.T.);
#92 = EDGE_CURVE('',#93,#93,#95,.T.);
#93 = VERTEX_POINT('',#94);
#94 = CARTESIAN_POINT('',(100.,0.,0.));
#95 = CIRCLE('',#96,100.);
#96 = AXIS2_PLACEMENT_3D('',#97,#98,#99);
#97 = CARTESIAN_POINT('',(0.,0.,0.));
#98 = DIRECTION('',(0.,-2.22044604925E-16,-1.));
#99 = DIRECTION('',(1.,0.,0.));
#100 = ORIENTED_EDGE('',*,*,#101,.T.);
#101 = EDGE_CURVE('',#93,#73,#102,.T.);
#102 = LINE('',#103,#104);
#103 = CARTESIAN_POINT('',(100.,0.,0.));
#104 = VECTOR('',#105,1.);
#105 = DIRECTION('',(0.,2.22044604925E-16,1.));
#106 = ORIENTED_EDGE('',*,*,#72,.F.);
#107 = ORIENTED_EDGE('',*,*,#101,.F.);
#108 = CYLINDRICAL_SURFACE('',#109,100.);
#109 = AXIS2_PLACEMENT_3D('',#110,#111,#112);
#110 = CARTESIAN_POINT('',(0.,0.,0.));
#111 = DIRECTION('',(0.,2.22044604925E-16,1.));
#112 = DIRECTION('',(1.,0.,0.));
#113 = ADVANCED_FACE('',(#114),#133,.T.);
#114 = FACE_BOUND('',#115,.T.);
#115 = EDGE_LOOP('',(#116,#117,#125,#132));
#116 = ORIENTED_EDGE('',*,*,#92,.T.);
#117 = ORIENTED_EDGE('',*,*,#118,.T.);
#118 = EDGE_CURVE('',#93,#119,#121,.T.);
#119 = VERTEX_POINT('',#120);
#120 = CARTESIAN_POINT('',(85.,-1.21226440308E-15,-5.459553513985));
#121 = LINE('',#122,#123);
#122 = CARTESIAN_POINT('',(100.,0.,0.));
#123 = VECTOR('',#124,1.);
#124 = DIRECTION('',(-0.939692620786,-7.594372760105E-17,-0.342020143325
    ));
#125 = ORIENTED_EDGE('',*,*,#126,.F.);
#126 = EDGE_CURVE('',#119,#119,#127,.T.);
#127 = CIRCLE('',#128,85.);
#128 = AXIS2_PLACEMENT_3D('',#129,#130,#131);
#129 = CARTESIAN_POINT('',(0.,-1.21226440308E-15,-5.459553513985));
#130 = DIRECTION('',(0.,-2.22044604925E-16,-1.));
#131 = DIRECTION('',(1.,0.,0.));
#132 = ORIENTED_EDGE('',*,*,#118,.F.);
#133 = CONICAL_SURFACE('',#134,100.,1.221730476397);
#134 = AXIS2_PLACEMENT_3D('',#135,#136,#137);
#135 = CARTESIAN_POINT('',(0.,0.,0.));
#136 = DIRECTION('',(0.,2.22044604925E-16,1.));
#137 = DIRECTION('',(1.,0.,0.));
#138 = ADVANCED_FACE('',(#139),#158,.F.);
#139 = FACE_BOUND('',#140,.F.);
#140 = EDGE_LOOP('',(#141,#142,#150,#157));
#141 = ORIENTED_EDGE('',*,*,#126,.F.);
#142 = ORIENTED_EDGE('',*,*,#143,.F.);
#143 = EDGE_CURVE('',#144,#119,#146,.T.);
#144 = VERTEX_POINT('',#145);
#145 = CARTESIAN_POINT('',(85.,9.782482060921E-16,0.));
#146 = LINE('',#147,#148);
#147 = CARTESIAN_POINT('',(85.,0.,0.));
#148 = VECTOR('',#149,1.);
#149 = DIRECTION('',(0.,-2.22044604925E-16,-1.));
#150 = ORIENTED_EDGE('',*,*,#151,.T.);
#151 = EDGE_CURVE('',#144,#144,#152,.T.);
#152 = CIRCLE('',#153,85.);
#153 = AXIS2_PLACEMENT_3D('',#154,#155,#156);
#154 = CARTESIAN_POINT('',(0.,4.823136033679E-47,2.172147364403E-31));
#155 = DIRECTION('',(0.,-2.22044604925E-16,-1.));
#156 = DIRECTION('',(1.,1.150880242461E-17,-2.555467487533E-33));
#157 = ORIENTED_EDGE('',*,*,#143,.T.);
#158 = CYLINDRICAL_SURFACE('',#159,85.);
#159 = AXIS2_PLACEMENT_3D('',#160,#161,#162);
#160 = CARTESIAN_POINT('',(0.,0.,0.));
#161 = DIRECTION('',(-0.,-2.22044604925E-16,-1.));
#162 = DIRECTION('',(1.,0.,0.));
#163 = ADVANCED_FACE('',(#164,#167),#178,.T.);
#164 = FACE_BOUND('',#165,.F.);
#165 = EDGE_LOOP('',(#166));
#166 = ORIENTED_EDGE('',*,*,#39,.T.);
#167 = FACE_BOUND('',#168,.F.);
#168 = EDGE_LOOP('',(#169));
#169 = ORIENTED_EDGE('',*,*,#170,.F.);
#170 = EDGE_CURVE('',#171,#171,#173,.T.);
#171 = VERTEX_POINT('',#172);
#172 = CARTESIAN_POINT('',(100.,2.775557561563E-15,12.5));
#173 = CIRCLE('',#174,100.);
#174 = AXIS2_PLACEMENT_3D('',#175,#176,#177);
#175 = CARTESIAN_POINT('',(0.,2.775557561563E-15,12.5));
#176 = DIRECTION('',(0.,-2.22044604925E-16,-1.));
#177 = DIRECTION('',(1.,0.,0.));
#178 = PLANE('',#179);
#179 = AXIS2_PLACEMENT_3D('',#180,#181,#182);
#180 = CARTESIAN_POINT('',(0.,2.775557561563E-15,12.5));
#181 = DIRECTION('',(-0.,-2.22044604925E-16,-1.));
#182 = DIRECTION('',(1.,-0.,-0.));
#183 = ADVANCED_FACE('',(#184),#203,.T.);
#184 = FACE_BOUND('',#185,.F.);
#185 = EDGE_LOOP('',(#186,#187,#195,#202));
#186 = ORIENTED_EDGE('',*,*,#170,.T.);
#187 = ORIENTED_EDGE('',*,*,#188,.T.);
#188 = EDGE_CURVE('',#171,#189,#191,.T.);
#189 = VERTEX_POINT('',#190);
#190 = CARTESIAN_POINT('',(100.,4.440892098501E-15,20.));
#191 = LINE('',#192,#193);
#192 = CARTESIAN_POINT('',(100.,2.775557561563E-15,12.5));
#193 = VECTOR('',#194,1.);
#194 = DIRECTION('',(0.,2.22044604925E-16,1.));
#195 = ORIENTED_EDGE('',*,*,#196,.F.);
#196 = EDGE_CURVE('',#189,#189,#197,.T.);
#197 = CIRCLE('',#198,100.);
#198 = AXIS2_PLACEMENT_3D('',#199,#200,#201);
#199 = CARTESIAN_POINT('',(0.,4.440892098501E-15,20.));
#200 = DIRECTION('',(0.,-2.22044604925E-16,-1.));
#201 = DIRECTION('',(1.,0.,0.));
#202 = ORIENTED_EDGE('',*,*,#188,.F.);
#203 = CYLINDRICAL_SURFACE('',#204,100.);
#204 = AXIS2_PLACEMENT_3D('',#205,#206,#207);
#205 = CARTESIAN_POINT('',(0.,2.775557561563E-15,12.5));
#206 = DIRECTION('',(0.,2.22044604925E-16,1.));
#207 = DIRECTION('',(1.,0.,0.));
#208 = ADVANCED_FACE('',(#209,#212),#223,.T.);
#209 = FACE_BOUND('',#210,.T.);
#210 = EDGE_LOOP('',(#211));
#211 = ORIENTED_EDGE('',*,*,#151,.T.);
#212 = FACE_BOUND('',#213,.F.);
#213 = EDGE_LOOP('',(#214));
#214 = ORIENTED_EDGE('',*,*,#215,.T.);
#215 = EDGE_CURVE('',#216,#216,#218,.T.);
#216 = VERTEX_POINT('',#217);
#217 = CARTESIAN_POINT('',(5.,0.,0.));
#218 = CIRCLE('',#219,5.);
#219 = AXIS2_PLACEMENT_3D('',#220,#221,#222);
#220 = CARTESIAN_POINT('',(0.,0.,0.));
#221 = DIRECTION('',(0.,-2.22044604925E-16,-1.));
#222 = DIRECTION('',(1.,0.,0.));
#223 = PLANE('',#224);
#224 = AXIS2_PLACEMENT_3D('',#225,#226,#227);
#225 = CARTESIAN_POINT('',(0.,0.,0.));
#226 = DIRECTION('',(-0.,-2.22044604925E-16,-1.));
#227 = DIRECTION('',(1.,-0.,-0.));
#228 = ADVANCED_FACE('',(#229),#241,.F.);
#229 = FACE_BOUND('',#230,.F.);
#230 = EDGE_LOOP('',(#231,#239,#240));
#231 = ORIENTED_EDGE('',*,*,#232,.T.);
#232 = EDGE_CURVE('',#233,#216,#235,.T.);
#233 = VERTEX_POINT('',#234);
#234 = CARTESIAN_POINT('',(0.,6.409875621279E-16,2.886751345948));
#235 = LINE('',#236,#237);
#236 = CARTESIAN_POINT('',(0.,6.409875621279E-16,2.886751345948));
#237 = VECTOR('',#238,1.);
#238 = DIRECTION('',(0.866025403784,-1.110223024625E-16,-0.5));
#239 = ORIENTED_EDGE('',*,*,#215,.F.);
#240 = ORIENTED_EDGE('',*,*,#232,.F.);
#241 = CONICAL_SURFACE('',#242,0.,1.047197551197);
#242 = AXIS2_PLACEMENT_3D('',#243,#244,#245);
#243 = CARTESIAN_POINT('',(0.,6.409875621279E-16,2.886751345948));
#244 = DIRECTION('',(-0.,-2.22044604925E-16,-1.));
#245 = DIRECTION('',(1.,0.,0.));
#246 = ADVANCED_FACE('',(#247),#250,.F.);
#247 = FACE_BOUND('',#248,.T.);
#248 = EDGE_LOOP('',(#249));
#249 = ORIENTED_EDGE('',*,*,#196,.F.);
#250 = PLANE('',#251);
#251 = AXIS2_PLACEMENT_3D('',#252,#253,#254);
#252 = CARTESIAN_POINT('',(0.,4.440892098501E-15,20.));
#253 = DIRECTION('',(-0.,-2.22044604925E-16,-1.));
#254 = DIRECTION('',(1.,0.,0.));
#255 = ( GEOMETRIC_REPRESENTATION_CONTEXT(3) 
GLOBAL_UNCERTAINTY_ASSIGNED_CONTEXT((#259)) GLOBAL_UNIT_ASSIGNED_CONTEXT
((#256,#257,#258)) REPRESENTATION_CONTEXT('Context #1',
  '3D Context with UNIT and UNCERTAINTY') );
#256 = ( LENGTH_UNIT() NAMED_UNIT(*) SI_UNIT(.MILLI.,.METRE.) );
#257 = ( NAMED_UNIT(*) PLANE_ANGLE_UNIT() SI_UNIT($,.RADIAN.) );
#258 = ( NAMED_UNIT(*) SI_UNIT($,.STERADIAN.) SOLID_ANGLE_UNIT() );
#259 = UNCERTAINTY_MEASURE_WITH_UNIT(LENGTH_MEASURE(1.E-07),#256,
  'distance_accuracy_value','confusion accuracy');
#260 = CONTEXT_DEPENDENT_SHAPE_REPRESENTATION(#261,#263);
#261 = ( REPRESENTATION_RELATIONSHIP('','',#32,#10) 
REPRESENTATION_RELATIONSHIP_WITH_TRANSFORMATION(#262) 
SHAPE_REPRESENTATION_RELATIONSHIP() );
#262 = ITEM_DEFINED_TRANSFORMATION('','',#11,#15);
#263 = PRODUCT_DEFINITION_SHAPE('Placement','Placement of an item',#264
  );
#264 = NEXT_ASSEMBLY_USAGE_OCCURRENCE('4','Body001','',#5,#27,$);
#265 = PRODUCT_RELATED_PRODUCT_CATEGORY('part',$,(#29));
#266 = MECHANICAL_DESIGN_GEOMETRIC_PRESENTATION_REPRESENTATION('',(#267)
  ,#255);
#267 = STYLED_ITEM('color',(#268),#33);
#268 = PRESENTATION_STYLE_ASSIGNMENT((#269,#277));
#269 = SURFACE_STYLE_USAGE(.BOTH.,#270);
#270 = SURFACE_SIDE_STYLE('',(#271,#275));
#271 = SURFACE_STYLE_FILL_AREA(#272);
#272 = FILL_AREA_STYLE('',(#273));
#273 = FILL_AREA_STYLE_COLOUR('',#274);
#274 = COLOUR_RGB('',0.447058818107,0.474509808674,0.501960817233);
#275 = SURFACE_STYLE_RENDERING_WITH_PROPERTIES(.NORMAL_SHADING.,#274,(
    #276));
#276 = SURFACE_STYLE_TRANSPARENT(0.800000011921);
#277 = CURVE_STYLE('',#278,POSITIVE_LENGTH_MEASURE(0.1),#279);
#278 = DRAUGHTING_PRE_DEFINED_CURVE_FONT('continuous');
#279 = COLOUR_RGB('',9.803921802644E-02,9.803921802644E-02,
  9.803921802644E-02);
ENDSEC;
END-ISO-10303-21;
